<svg xmlns="http://www.w3.org/2000/svg" xml:space="preserve" viewBox="0 0 1000 1000">
  <rect width="100%" height="100%" fill="rgba(255,255,255,0)"/>
  <path d="M1073 1a291 291 0 0 0-231 155c-20 41-29 78-31 124a282 282 0 0 0 154 262l14 7-1 26a22063 22063 0 0 0-6 159 40300 40300 0 0 1-574 3l6 10a3941 3941 0 0 1 50 81l69 109 5 8h6l26 1a342054 342054 0 0 0 401 8l-1 39-3 119-9 346-4 142a21815 21815 0 0 0-6 178l-2 68-2 43-2 27-8 73c-4 29-10 56-19 90s-29 81-45 107a235 235 0 0 1-229 112c-37-7-61-16-101-42a610 610 0 0 1-214-234l-4-7h3l56 2 91 1-9-11c-34-43-75-104-106-158a1065 1065 0 0 1-121-302A1077 1077 0 0 0 1 2162a1534 1534 0 0 0 86-59 8981 8981 0 0 0 50-34l3 10a786 786 0 0 0 140 273c40 51 97 108 148 149 107 85 234 152 382 201a615 615 0 0 1 240 204c15 22 36 62 44 84 5 11 5 11 6 9l1-1280V440h-9c-30-3-55-11-80-27-12-9-32-29-40-41a157 157 0 0 1-23-114 153 153 0 0 1 146-124h6V0h-13l-16 1zm173 155v118h32c67 0 111 4 147 14 33 8 52 18 69 35 30 30 48 82 53 157 3 50 5 147 5 274 0 142 3 215 13 297 10 79 26 147 47 198a491 491 0 0 0 256 244l-4 2c-20 8-51 24-73 38a435 435 0 0 0-181 216 733 733 0 0 0-51 255c-3 55-5 159-6 321l-2 144c-5 84-19 139-41 173-24 35-74 57-150 64-19 3-56 4-88 4h-26v236h70c74-1 97-2 131-5 38-4 63-9 93-19 96-32 159-88 205-180l14-30c22-57 38-135 42-215 4-58 6-132 7-268 1-124 3-179 7-241 8-116 21-176 48-228 32-63 86-109 150-132a341 341 0 0 1 108-18l1-118c0-112 0-118-2-118l-16-1c-66-4-119-23-163-56-14-10-36-32-47-45-35-43-56-94-66-161-13-77-18-173-20-355-2-179-7-288-18-366a405 405 0 0 0-111-244 349 349 0 0 0-232-103c-36-3-54-4-129-5h-72v118z" style="is-custom-font:none;font-file-url:none" transform="matrix(.3 0 0 .3 159 17)" vector-effect="non-scaling-stroke"/>
</svg>