<?xml version="1.0" standalone="no"?>
<!DOCTYPE svg PUBLIC "-//W3C//DTD SVG 20010904//EN"
 "http://www.w3.org/TR/2001/REC-SVG-20010904/DTD/svg10.dtd">
<svg version="1.0" xmlns="http://www.w3.org/2000/svg"
 width="2122.000000pt" height="3000.000000pt" viewBox="0 0 2122.000000 3000.000000"
 preserveAspectRatio="xMidYMid meet">

<g transform="translate(0.000000,3000.000000) scale(0.100000,-0.100000)"
fill="#000000" stroke="none">
<path d="M10725 29993 c-389 -43 -705 -133 -1018 -289 -561 -280 -1003 -717
-1283 -1267 -205 -404 -299 -775 -311 -1237 -10 -376 47 -727 173 -1069 47
-127 166 -373 238 -491 272 -447 681 -829 1130 -1057 72 -36 132 -67 134 -68
2 -2 -1 -119 -7 -262 -12 -286 -49 -1281 -54 -1465 -2 -65 -6 -120 -10 -124
-6 -7 -2147 -20 -4455 -27 -700 -2 -1275 -7 -1279 -10 -3 -4 21 -48 54 -99 33
-51 127 -199 208 -328 81 -129 216 -343 300 -475 166 -262 607 -961 689 -1092
l51 -82 50 0 c28 -1 147 -3 265 -6 249 -5 1860 -37 3130 -61 481 -9 876 -18
878 -19 2 -2 -2 -178 -7 -391 -6 -214 -20 -749 -31 -1189 -21 -814 -54 -2074
-90 -3460 -12 -423 -30 -1065 -41 -1425 -11 -360 -24 -821 -29 -1025 -6 -203
-17 -543 -25 -755 -8 -212 -19 -518 -25 -680 -6 -162 -15 -354 -20 -426 -6
-73 -14 -196 -20 -275 -11 -164 -51 -525 -81 -728 -42 -292 -100 -563 -190
-898 -92 -344 -286 -811 -447 -1076 -366 -603 -957 -1000 -1657 -1113 -155
-25 -479 -26 -630 -1 -378 63 -612 159 -1014 416 -917 585 -1688 1426 -2145
2338 l-36 73 27 0 c16 0 269 -7 563 -15 573 -15 910 -22 910 -17 0 1 -40 53
-89 115 -340 431 -747 1039 -1058 1582 -574 1000 -977 1987 -1179 2880 -13 61
-27 121 -30 133 -7 32 -16 23 -117 -107 -626 -808 -1205 -1905 -1573 -2982
-296 -868 -489 -1802 -544 -2639 -6 -96 -15 -213 -21 -260 -13 -124 -12 -173
5 -167 7 3 161 110 342 238 181 127 412 290 514 362 102 72 254 180 338 240
85 60 157 105 161 101 4 -5 18 -54 30 -109 31 -143 104 -382 178 -585 268
-733 693 -1479 1222 -2145 397 -500 970 -1073 1481 -1480 1070 -854 2339
-1523 3820 -2014 120 -40 190 -70 310 -137 826 -457 1571 -1138 2086 -1904
151 -224 364 -621 449 -835 46 -118 44 -113 55 -95 6 9 10 4933 10 12801 l0
12786 -92 7 c-300 22 -551 108 -793 269 -122 82 -321 282 -403 407 -117 177
-188 350 -234 565 -32 157 -33 411 0 572 81 401 293 728 628 968 104 75 314
177 441 214 114 34 290 61 388 61 l65 0 0 670 0 670 -127 -2 c-71 -1 -141 -3
-158 -5z"/>
<path d="M12460 28441 l0 -1181 318 0 c671 -1 1110 -41 1477 -135 320 -82 510
-180 681 -350 309 -308 485 -828 533 -1575 33 -499 51 -1474 51 -2735 0 -1427
32 -2151 131 -2975 95 -793 256 -1467 473 -1975 407 -952 1250 -1781 2397
-2355 87 -44 159 -83 159 -86 0 -3 -17 -12 -37 -21 -204 -84 -516 -246 -735
-380 -608 -372 -1112 -870 -1459 -1444 -100 -166 -279 -528 -352 -714 -185
-468 -321 -987 -411 -1560 -40 -252 -62 -500 -91 -990 -33 -556 -54 -1592 -65
-3210 -5 -704 -14 -1352 -20 -1440 -54 -842 -186 -1398 -413 -1735 -236 -349
-734 -565 -1493 -644 -194 -21 -561 -35 -886 -36 l-258 0 0 -1182 0 -1181 703
6 c737 6 970 15 1307 48 382 37 626 87 929 189 958 323 1589 876 2050 1800 53
107 116 245 140 305 223 566 378 1348 425 2145 35 580 53 1324 66 2680 12
1238 28 1791 71 2410 79 1161 205 1760 477 2285 326 626 858 1090 1506 1312
283 96 565 151 896 173 91 6 171 13 178 15 9 4 12 248 12 1180 0 1112 -1 1175
-17 1175 -10 0 -83 5 -163 10 -657 45 -1186 226 -1630 558 -139 105 -363 321
-473 457 -344 426 -554 937 -662 1608 -122 765 -176 1732 -195 3547 -19 1789
-73 2878 -181 3660 -146 1053 -498 1829 -1109 2440 -388 389 -848 671 -1392
853 -244 82 -535 137 -933 176 -357 35 -536 42 -1282 48 l-723 6 0 -1182z"/>
</g>
</svg>
